<svg width="74" height="60" viewBox="0 0 74 60" fill="none" xmlns="http://www.w3.org/2000/svg">
<mask id="mask0_342_215" style="mask-type:luminance" maskUnits="userSpaceOnUse" x="0" y="0" width="74" height="61">
<path d="M73.0435 0.00390625H6.10352e-05V60.0039H73.0435V0.00390625Z" fill="white"/>
</mask>
<g mask="url(#mask0_342_215)">
<path d="M23.29 21.5231C21.2331 21.5231 19.2547 21.9444 17.4581 22.7043C14.7652 23.8443 12.4812 25.74 10.8663 28.1314C9.25137 30.5187 8.30142 33.4222 8.30555 36.5116C8.30555 38.5726 8.72683 40.551 9.48679 42.3476C10.6267 45.0405 12.5225 47.3245 14.9139 48.9395C17.3012 50.5544 20.2006 51.5002 23.29 51.5002C23.2941 51.5002 23.2941 51.5002 23.2982 51.5002H23.3024C25.2973 51.5002 27.2137 51.1037 28.9608 50.3892C30.7078 49.6746 32.2856 48.638 33.6238 47.3658C35.0446 46.0111 35.1024 43.7602 33.7477 42.3394C33.0497 41.6042 32.1121 41.2366 31.1704 41.2366C30.2907 41.2366 29.4068 41.5629 28.7212 42.2155C28.0108 42.8928 27.1765 43.438 26.2637 43.8097C25.3509 44.1814 24.3597 44.388 23.3024 44.3921C22.2037 44.3921 21.1794 44.1732 20.2377 43.7767C18.8293 43.1819 17.6192 42.1783 16.7684 40.9186C15.9175 39.6589 15.426 38.1637 15.426 36.5199C15.426 35.4213 15.6449 34.397 16.0414 33.4553C16.6362 32.0469 17.6398 30.8367 18.8995 29.9859C20.1593 29.1351 21.6544 28.6436 23.2982 28.6436C24.3556 28.6436 25.3468 28.8501 26.2596 29.2259C27.1724 29.5976 28.0067 30.1428 28.7171 30.8202C29.4068 31.4769 30.2866 31.7991 31.1663 31.7991C32.108 31.7991 33.0455 31.4273 33.7435 30.6963C35.0983 29.2755 35.0404 27.0245 33.6196 25.6698C32.2815 24.3977 30.7037 23.361 28.9566 22.6465C27.2137 21.932 25.2931 21.5355 23.2982 21.5355H23.29V21.5231ZM22.8522 57.0884C11.5189 57.0884 2.33325 48.6916 2.33325 37.3583C2.33325 26.025 12.9355 19.2473 22.8522 2.65625C30.8978 17.5209 40.5667 24.3358 42.8631 33.3231H19.8371V40.0388H43.1976C41.8759 49.9927 33.2727 57.0884 22.8522 57.0884Z" fill="#10CFC9"/>
<path d="M19.8372 33.3242H42.8632C43.1936 34.6128 43.3712 35.951 43.3712 37.3594V37.4007C43.3712 38.3011 43.3092 39.1809 43.1936 40.0399H19.8372V33.3242Z" fill="#10CFC9"/>
<path d="M23.29 21.5231C21.2331 21.5231 19.2547 21.9444 17.4581 22.7043C14.7652 23.8443 12.4812 25.74 10.8663 28.1314C9.25137 30.5187 8.30142 33.4222 8.30555 36.5116C8.30555 38.5726 8.72683 40.551 9.48679 42.3476C10.6267 45.0405 12.5225 47.3245 14.9139 48.9395C17.3012 50.5544 20.2006 51.5002 23.29 51.5002C23.2941 51.5002 23.2941 51.5002 23.2982 51.5002H23.3024C25.2973 51.5002 27.2137 51.1037 28.9608 50.3892C30.7078 49.6746 32.2856 48.638 33.6238 47.3658C35.0446 46.0111 35.1024 43.7602 33.7477 42.3394C33.0497 41.6042 32.1121 41.2366 31.1704 41.2366C30.2907 41.2366 29.4068 41.5629 28.7212 42.2155C28.0108 42.8928 27.1765 43.438 26.2637 43.8097C25.3509 44.1814 24.3597 44.388 23.3024 44.3921C22.2037 44.3921 21.1794 44.1732 20.2377 43.7767C18.8293 43.1819 17.6192 42.1783 16.7684 40.9186C15.9175 39.6589 15.426 38.1637 15.426 36.5199C15.426 35.4213 15.6449 34.397 16.0414 33.4553C16.6362 32.0469 17.6398 30.8367 18.8995 29.9859C20.1593 29.1351 21.6544 28.6436 23.2982 28.6436C24.3556 28.6436 25.3468 28.8501 26.2596 29.2259C27.1724 29.5976 28.0067 30.1428 28.7171 30.8202C29.4068 31.4769 30.2866 31.7991 31.1663 31.7991C32.108 31.7991 33.0455 31.4273 33.7435 30.6963C35.0983 29.2755 35.0404 27.0245 33.6196 25.6698C32.2815 24.3977 30.7037 23.361 28.9566 22.6465C27.2137 21.932 25.2931 21.5355 23.2982 21.5355H23.29V21.5231ZM22.8522 57.0884C11.5189 57.0884 2.33325 48.6916 2.33325 37.3583C2.33325 26.025 12.9355 19.2473 22.8522 2.65625C30.8978 17.5209 40.5667 24.3358 42.8631 33.3231H19.8371V40.0388H43.1976C41.8759 49.9927 33.2727 57.0884 22.8522 57.0884Z" fill="#10CFC9"/>
<path d="M19.8372 33.3242H42.8632C43.1936 34.6128 43.3712 35.951 43.3712 37.3594V37.4007C43.3712 38.3011 43.3092 39.1809 43.1936 40.0399H19.8372V33.3242Z" fill="#10CFC9"/>
<path d="M63.3201 39.1635C63.3201 39.2874 63.3531 39.3989 63.4151 39.5022C63.477 39.6013 63.5596 39.6798 63.6629 39.7376C63.7661 39.7954 63.8859 39.8244 64.0139 39.8285C64.1461 39.8285 64.2618 39.7996 64.3691 39.7376C64.4765 39.6798 64.5591 39.6013 64.6211 39.5022C64.683 39.4031 64.7161 39.2916 64.7161 39.1635V36.0906L65.9428 37.8997C66.0171 38.0071 66.0997 38.0897 66.1947 38.1516C66.2897 38.2136 66.4053 38.2425 66.5334 38.2425C66.6614 38.2425 66.7771 38.2094 66.8721 38.1516C66.9671 38.0897 67.0538 38.0071 67.124 37.8997L68.3713 36.0617V39.1429C68.3713 39.2668 68.4044 39.3824 68.4663 39.4857C68.5283 39.5889 68.6109 39.6715 68.7183 39.7294C68.8215 39.7913 68.9413 39.8202 69.0735 39.8244C69.2056 39.8244 69.3254 39.7913 69.4369 39.7335C69.5443 39.6757 69.6269 39.5931 69.6889 39.4898C69.7508 39.3866 69.7839 39.275 69.7839 39.147V34.2362C69.7839 34.1081 69.7508 33.9925 69.6889 33.8892C69.6269 33.786 69.5402 33.7075 69.4369 33.6456C69.3295 33.5877 69.2098 33.5547 69.0735 33.5547H68.9165C68.7761 33.5547 68.6522 33.5836 68.5448 33.6414C68.4415 33.6992 68.3507 33.786 68.2805 33.9016L66.554 36.5863L64.8359 33.9099C64.7698 33.8066 64.683 33.7199 64.5798 33.6579C64.4724 33.5919 64.3444 33.5588 64.1915 33.5588H64.0346C63.9024 33.5588 63.7827 33.5919 63.6753 33.6497C63.5679 33.7116 63.4811 33.7901 63.4233 33.8934C63.3614 33.9966 63.3283 34.1123 63.3283 34.2403V39.1635H63.3201Z" fill="#10CFC9"/>
<path d="M62.2091 36.4975C62.3124 36.2538 62.366 35.9688 62.3702 35.6467V35.6302C62.3702 35.3369 62.3206 35.0726 62.2297 34.833C62.1348 34.5935 61.9985 34.387 61.8167 34.2176C61.6061 34.0111 61.3418 33.8583 61.0237 33.7509C60.7098 33.6435 60.3422 33.5898 59.9333 33.5898H57.6906C57.5585 33.5898 57.4387 33.6229 57.3313 33.6807C57.2239 33.7427 57.1372 33.8211 57.0794 33.9244C57.0174 34.0276 56.9844 34.1433 56.9844 34.2713V39.1491C56.9844 39.2771 57.0174 39.3928 57.0794 39.4919C57.1413 39.5952 57.2239 39.6778 57.3313 39.7356C57.4387 39.7976 57.5585 39.8265 57.6906 39.8265C57.8228 39.8265 57.9426 39.7934 58.05 39.7356C58.1574 39.6778 58.2441 39.5952 58.306 39.4919C58.368 39.3887 58.401 39.2771 58.401 39.1491V37.7985H59.5368L60.9205 39.4754C61.0031 39.5787 61.1022 39.6654 61.2137 39.7273C61.3252 39.7934 61.4615 39.8265 61.6226 39.8265C61.7383 39.8265 61.8456 39.8017 61.9489 39.748C62.0521 39.6984 62.1348 39.6241 62.1967 39.5291C62.2587 39.4341 62.2917 39.3226 62.2958 39.1987C62.2958 39.0954 62.2752 39.0046 62.2339 38.922C62.1926 38.8394 62.1389 38.7609 62.0645 38.6783L61.0774 37.5301C61.3417 37.4268 61.5689 37.2905 61.763 37.1212C61.953 36.9477 62.1017 36.7412 62.2091 36.4975ZM60.9287 35.7169C60.9287 35.8904 60.8874 36.0432 60.8007 36.1754C60.714 36.3075 60.5901 36.4067 60.429 36.481C60.2679 36.5512 60.0696 36.5884 59.8383 36.5925H58.3969V34.8165H59.8094C60.0407 34.8165 60.239 34.8496 60.4083 34.9156C60.5777 34.9817 60.7057 35.0808 60.7924 35.213C60.8833 35.3452 60.9287 35.5063 60.9287 35.7004V35.7169Z" fill="#10CFC9"/>
<path d="M51.8299 39.7728H55.4604C55.5802 39.7728 55.6834 39.7439 55.7826 39.6902C55.8776 39.6365 55.9519 39.5663 56.0097 39.4754C56.0676 39.3845 56.0965 39.2854 56.0965 39.1698C56.0965 39.0582 56.0676 38.955 56.0097 38.8641C55.9519 38.7733 55.8776 38.6989 55.7826 38.6452C55.6876 38.5915 55.5802 38.5626 55.4604 38.5626H52.5321V37.2657H54.9978C55.1176 37.2657 55.2209 37.2368 55.32 37.1831C55.415 37.1294 55.4893 37.0592 55.5471 36.9684C55.605 36.8775 55.6339 36.7784 55.6339 36.6627C55.6339 36.5512 55.605 36.4479 55.5471 36.3571C55.4893 36.2662 55.415 36.1919 55.32 36.1382C55.225 36.0845 55.1176 36.0556 54.9978 36.0556H52.5321V34.8H55.415C55.5348 34.8 55.638 34.7711 55.7371 34.7174C55.8321 34.6637 55.9065 34.5935 55.9643 34.5026C56.0221 34.4118 56.051 34.3126 56.051 34.197C56.051 34.0855 56.0221 33.9822 55.9643 33.8913C55.9065 33.8005 55.8321 33.7261 55.7371 33.6724C55.6421 33.6187 55.5348 33.5898 55.415 33.5898H51.8341C51.7019 33.5898 51.5821 33.6229 51.4747 33.6807C51.3674 33.7427 51.2806 33.8211 51.2228 33.9244C51.1609 34.0276 51.1278 34.1433 51.1278 34.2713V39.0954C51.1278 39.2235 51.1609 39.3391 51.2228 39.4382C51.2848 39.5415 51.3674 39.6241 51.4747 39.6819C51.5739 39.7397 51.6936 39.7728 51.8299 39.7728Z" fill="#10CFC9"/>
<path d="M49.9341 35.4484C49.7689 35.0767 49.5335 34.7504 49.2279 34.4737C48.9222 34.197 48.5629 33.9781 48.1416 33.8253C47.7203 33.6725 47.2577 33.594 46.7456 33.5898H44.9366C44.8044 33.5898 44.6846 33.6229 44.5772 33.6807C44.4698 33.7427 44.3831 33.8211 44.3253 33.9244C44.2633 34.0276 44.2303 34.1433 44.2303 34.2713V39.0954C44.2303 39.2235 44.2633 39.3391 44.3253 39.4382C44.3872 39.5415 44.4698 39.6241 44.5772 39.6819C44.6846 39.7397 44.8044 39.7728 44.9366 39.7728H46.7456C47.1545 39.7728 47.5303 39.7191 47.8814 39.62C48.2325 39.5167 48.5505 39.3721 48.8313 39.1863C49.1122 39.0004 49.3559 38.7774 49.5541 38.5213C49.7524 38.2653 49.9093 37.9803 50.0167 37.6705C50.1241 37.3607 50.1778 37.0303 50.1778 36.6792V36.6627C50.1819 36.2249 50.0993 35.8202 49.9341 35.4484ZM48.695 36.6999C48.695 36.9766 48.6455 37.2244 48.5546 37.4516C48.4596 37.6788 48.3275 37.8729 48.1581 38.0339C47.9847 38.1992 47.7823 38.3231 47.5427 38.4139C47.3032 38.5007 47.0388 38.5461 46.7456 38.5461H45.647V34.8206H46.7456C47.0388 34.8206 47.3032 34.8661 47.5427 34.9569C47.7823 35.0478 47.9847 35.1758 48.1581 35.3411C48.3275 35.5063 48.4596 35.7045 48.5546 35.9317C48.6455 36.1588 48.695 36.4108 48.695 36.6834V36.6999Z" fill="#10CFC9"/>
<path d="M42.4663 35.6608C42.359 35.3427 42.202 35.0495 41.9996 34.7893C41.7972 34.525 41.5536 34.2937 41.2727 34.0995C40.9877 33.9054 40.6738 33.7567 40.3269 33.6494C39.98 33.542 39.6041 33.4883 39.2035 33.4883C38.8028 33.4883 38.4311 33.5461 38.0801 33.6535C37.729 33.7609 37.4151 33.9137 37.1301 34.1078C36.8451 34.3019 36.6014 34.5332 36.3991 34.8017C36.1925 35.066 36.0356 35.3593 35.9282 35.6773C35.8208 35.9953 35.763 36.3299 35.763 36.6851V36.7016C35.763 37.0568 35.8208 37.3872 35.9282 37.7052C36.0356 38.0233 36.1925 38.3124 36.3949 38.5767C36.5973 38.841 36.841 39.0723 37.1218 39.2664C37.4027 39.4606 37.7207 39.6093 38.0677 39.7166C38.4146 39.824 38.7905 39.8777 39.1911 39.8777C39.5917 39.8777 39.9676 39.8199 40.3145 39.7125C40.6614 39.6051 40.9795 39.4523 41.2645 39.2541C41.5494 39.0599 41.7931 38.8287 41.9955 38.5602C42.1979 38.2917 42.3548 38.0026 42.4663 37.6846C42.5737 37.3666 42.6316 37.032 42.6316 36.6768V36.6603C42.6316 36.3133 42.5779 35.9747 42.4663 35.6608ZM41.1447 36.7016C41.1447 36.9701 41.0951 37.2179 41.0042 37.4492C40.9093 37.6804 40.7771 37.887 40.6036 38.0604C40.4301 38.238 40.2278 38.3743 39.9923 38.4735C39.7569 38.5726 39.4926 38.6221 39.2076 38.6263C38.9185 38.6263 38.6583 38.5726 38.4187 38.4735C38.1792 38.3702 37.9727 38.2339 37.7992 38.0522C37.6257 37.8746 37.4894 37.6681 37.3944 37.4326C37.2994 37.1972 37.2499 36.9494 37.2499 36.6809V36.6644C37.2499 36.396 37.2994 36.1481 37.3903 35.9169C37.4853 35.6856 37.6175 35.4832 37.7909 35.3056C37.9644 35.128 38.1668 34.9917 38.4022 34.8926C38.6376 34.7934 38.902 34.7439 39.1869 34.7397C39.4761 34.7397 39.7363 34.7934 39.9758 34.8926C40.2154 34.9958 40.4219 35.1321 40.5954 35.3138C40.7688 35.4914 40.9051 35.6979 41.0001 35.9334C41.0951 36.1688 41.1447 36.4166 41.1447 36.6851V36.7016Z" fill="white"/>
<path d="M32.1783 39.1454C32.1783 39.2735 32.2113 39.3891 32.2733 39.4882C32.3352 39.5915 32.4178 39.6741 32.5252 39.7319C32.6326 39.7939 32.7524 39.8228 32.8845 39.8228C33.0167 39.8228 33.1365 39.7898 33.2439 39.7319C33.3512 39.6741 33.438 39.5915 33.4999 39.4882C33.5619 39.385 33.5949 39.2735 33.5949 39.1454V34.8418H34.962C35.0818 34.8418 35.1933 34.8128 35.2924 34.755C35.3916 34.6972 35.4701 34.6228 35.5279 34.5279C35.5857 34.4329 35.6146 34.3296 35.6187 34.214C35.6187 34.0983 35.5898 33.9909 35.5279 33.8959C35.4701 33.8009 35.3874 33.7266 35.2924 33.6688C35.1933 33.611 35.0859 33.5862 34.962 33.582H30.807C30.6873 33.582 30.5757 33.611 30.4766 33.6688C30.3775 33.7266 30.299 33.8009 30.2412 33.8959C30.1834 33.9909 30.1503 34.0942 30.1503 34.214C30.1503 34.3296 30.1834 34.4329 30.2412 34.5279C30.299 34.6228 30.3775 34.6972 30.4766 34.755C30.5757 34.8128 30.6831 34.8418 30.807 34.8418H32.1741V39.1454H32.1783Z" fill="white"/>
<path d="M25.1979 39.7728H28.8284C28.9482 39.7728 29.0514 39.7439 29.1505 39.6902C29.2455 39.6365 29.3199 39.5663 29.3777 39.4754C29.4355 39.3845 29.4644 39.2854 29.4644 39.1698C29.4644 39.0582 29.4355 38.955 29.3777 38.8641C29.3199 38.7733 29.2455 38.6989 29.1505 38.6452C29.0555 38.5915 28.9482 38.5626 28.8284 38.5626H25.9001V37.2657H28.3658C28.4856 37.2657 28.5888 37.2368 28.688 37.1831C28.783 37.1294 28.8573 37.0592 28.9151 36.9684C28.9729 36.8775 29.0019 36.7784 29.0019 36.6627C29.0019 36.5512 28.9729 36.4479 28.9151 36.3571C28.8573 36.2662 28.783 36.1919 28.688 36.1382C28.593 36.0845 28.4856 36.0556 28.3658 36.0556H25.9001V34.8H28.783C28.9027 34.8 29.006 34.7711 29.1051 34.7174C29.2001 34.6637 29.2745 34.5935 29.3323 34.5026C29.3901 34.4118 29.419 34.3126 29.419 34.197C29.419 34.0855 29.3901 33.9822 29.3323 33.8913C29.2745 33.8005 29.2001 33.7261 29.1051 33.6724C29.0101 33.6187 28.9027 33.5898 28.783 33.5898H25.2021C25.0699 33.5898 24.9501 33.6229 24.8427 33.6807C24.7353 33.7427 24.6486 33.8211 24.5908 33.9244C24.5288 34.0276 24.4958 34.1433 24.4958 34.2713V39.0954C24.4958 39.2235 24.5288 39.3391 24.5908 39.4382C24.6527 39.5415 24.7353 39.6241 24.8427 39.6819C24.9419 39.7397 25.0616 39.7728 25.1979 39.7728Z" fill="white"/>
<path d="M21.0308 39.8818C21.3736 39.8818 21.6834 39.8488 21.956 39.7869C22.2286 39.7249 22.4805 39.6382 22.7036 39.5225C22.9266 39.4069 23.1372 39.2665 23.3272 39.1054C23.3933 39.0517 23.4511 38.9856 23.4966 38.903C23.542 38.8204 23.5668 38.7254 23.5709 38.6221C23.5709 38.5065 23.5379 38.4032 23.4801 38.3082C23.4181 38.2132 23.3396 38.1389 23.2405 38.0811C23.1414 38.0233 23.0299 37.9985 22.9101 37.9943C22.8275 37.9943 22.749 38.0109 22.6747 38.0356C22.6044 38.0604 22.5384 38.0976 22.4847 38.143C22.3525 38.2463 22.2121 38.333 22.0717 38.4074C21.9312 38.4776 21.7825 38.5354 21.6173 38.5726C21.4562 38.6097 21.2745 38.6304 21.0763 38.6304C20.7995 38.6304 20.5435 38.5767 20.3163 38.4776C20.085 38.3743 19.8909 38.238 19.7257 38.0563C19.5605 37.8787 19.4324 37.6722 19.3416 37.4368C19.2507 37.2013 19.2053 36.9535 19.2053 36.6851V36.6685C19.2053 36.4001 19.2548 36.1523 19.3457 35.921C19.4366 35.6897 19.5687 35.4873 19.734 35.3097C19.9033 35.1321 20.1015 34.9958 20.3287 34.8967C20.5559 34.7976 20.8078 34.748 21.0804 34.7439C21.3323 34.7439 21.5678 34.781 21.7825 34.8595C21.9973 34.9339 22.2038 35.0454 22.4021 35.1858C22.4516 35.2188 22.5095 35.2477 22.5797 35.2767C22.6499 35.3014 22.7325 35.318 22.8275 35.318C22.9597 35.318 23.0753 35.2891 23.1827 35.2271C23.2901 35.1693 23.3727 35.0908 23.4346 34.9917C23.4966 34.8925 23.5296 34.781 23.5296 34.653C23.5255 34.5332 23.5007 34.4258 23.447 34.335C23.3933 34.2441 23.3272 34.1698 23.2529 34.1161C23.0753 33.988 22.8812 33.8765 22.6705 33.7857C22.4599 33.6907 22.2245 33.6204 21.9643 33.5668C21.7041 33.5172 21.4149 33.4883 21.0928 33.4883C20.6922 33.4883 20.3246 33.5461 19.9818 33.6535C19.639 33.7609 19.3292 33.9137 19.0525 34.1078C18.7757 34.3019 18.5403 34.5332 18.3379 34.8017C18.1397 35.066 17.991 35.3593 17.8836 35.6773C17.7762 35.9953 17.7267 36.3299 17.7225 36.6851V36.7016C17.7225 37.0568 17.7762 37.3955 17.8836 37.7135C17.991 38.0315 18.1438 38.3248 18.3421 38.585C18.5403 38.8493 18.7757 39.0765 19.0483 39.2706C19.3209 39.4647 19.6266 39.6134 19.9611 39.7166C20.2915 39.824 20.6467 39.8777 21.0308 39.8818Z" fill="white"/>
</g>
</svg>
