<svg width="150" height="150" viewBox="0 0 150 150" fill="none" xmlns="http://www.w3.org/2000/svg">
<circle cx="60.5705" cy="11.9389" r="2.10691" fill="#E8E8E8"/>
<circle cx="136.419" cy="66.7202" r="2.10691" fill="#E8E8E8"/>
<circle cx="61.2729" cy="136.951" r="2.10691" fill="#E8E8E8"/>
<path d="M53.6552 127.714L48.4361 138.295L45.0197 136.61C44.1933 136.203 43.5852 135.734 43.1954 135.203C42.8056 134.672 42.6015 134.108 42.5832 133.51C42.5648 132.912 42.6973 132.326 42.9807 131.752C43.3087 131.087 43.7859 130.576 44.4121 130.221C45.0283 129.861 45.7689 129.757 46.6341 129.908L46.5655 124.217L48.0621 124.955L48.0539 130.382L48.1446 130.427L50.2306 131.456L52.3854 127.087L53.6552 127.714ZM49.7386 132.454L47.6827 131.44C46.8664 131.037 46.1749 130.94 45.6082 131.149C45.0414 131.359 44.6065 131.771 44.3033 132.385C43.9951 133.01 43.938 133.596 44.1319 134.143C44.3108 134.694 44.8184 135.177 45.6549 135.589L47.6956 136.596L49.7386 132.454Z" fill="#E8E8E8"/>
<path d="M41.7469 121.073L34.2389 130.174L28.6088 125.53L29.3489 124.633L33.8867 128.376L36.5038 125.204L32.3561 121.782L33.0854 120.898L37.2332 124.32L39.9146 121.069L35.3768 117.326L36.1169 116.429L41.7469 121.073Z" fill="#E8E8E8"/>
<path d="M30.0449 109.249C30.5723 109.935 30.9064 110.628 31.0474 111.328C31.1884 112.027 31.1423 112.686 30.9092 113.305C30.6761 113.923 30.2656 114.459 29.6777 114.911L28.7736 113.735C29.1388 113.454 29.4123 113.109 29.5939 112.7C29.7667 112.298 29.8233 111.865 29.7638 111.4C29.6886 110.934 29.466 110.46 29.0962 109.979C28.6099 109.346 28.0817 108.973 27.5117 108.858C26.9417 108.744 26.4296 108.861 25.9753 109.21C25.6011 109.498 25.3643 109.808 25.2649 110.139C25.1566 110.478 25.1373 110.84 25.2071 111.225C25.27 111.602 25.385 112.01 25.5521 112.448C25.7123 112.878 25.8729 113.336 26.0338 113.822C26.3391 114.735 26.4427 115.506 26.3446 116.134C26.2376 116.769 25.8856 117.316 25.2888 117.775C24.7968 118.167 24.2668 118.391 23.6988 118.445C23.1219 118.505 22.5587 118.4 22.0093 118.128C21.4442 117.853 20.9287 117.414 20.463 116.808C20.0041 116.211 19.7182 115.609 19.6053 115.001C19.4856 114.384 19.5292 113.805 19.7362 113.263C19.9364 112.712 20.2825 112.241 20.7745 111.848L21.6786 113.024C21.4203 113.223 21.2178 113.485 21.0711 113.81C20.9155 114.142 20.8637 114.508 20.9156 114.908C20.9607 115.298 21.1408 115.698 21.4559 116.108C21.8374 116.623 22.2885 116.942 22.8091 117.066C23.323 117.181 23.8159 117.058 24.2881 116.695C24.6889 116.386 24.9107 116.039 24.9532 115.652C24.9889 115.256 24.9205 114.798 24.748 114.279C24.5666 113.766 24.3595 113.174 24.1267 112.503C23.9446 111.934 23.8234 111.389 23.7633 110.869C23.7031 110.348 23.7669 109.859 23.9548 109.403C24.1358 108.938 24.489 108.503 25.0146 108.099C25.46 107.757 25.9722 107.547 26.5512 107.471C27.1212 107.401 27.7125 107.506 28.3249 107.787C28.9305 108.058 29.5038 108.546 30.0449 109.249Z" fill="#E8E8E8"/>
<path d="M24.7966 101.719L14.0713 106.636L11.0298 100.002L12.087 99.517L14.5385 104.864L18.277 103.15L16.0362 98.2627L17.0781 97.7851L19.3189 102.673L23.1494 100.917L20.6978 95.5693L21.7551 95.0846L24.7966 101.719Z" fill="#E8E8E8"/>
<path d="M20.0829 90.4562L7.67039 88.4438L7.38355 86.9714L18.1363 80.4634L18.4231 81.9359L15.6514 83.5748L16.6118 88.505L19.7993 89.0003L20.0829 90.4562ZM15.4063 88.3106L14.607 84.2076L9.28228 87.3742L15.4063 88.3106Z" fill="#E8E8E8"/>
<path d="M17.9161 75.5547L6.13274 74.9531L6.32696 71.1488C6.37394 70.2285 6.56383 69.4844 6.89662 68.9163C7.22941 68.3482 7.66669 67.9373 8.20846 67.6837C8.75023 67.4301 9.34095 67.3196 9.98062 67.3523C10.7213 67.3901 11.3787 67.6262 11.9529 68.0605C12.5276 68.4837 12.9169 69.1224 13.1208 69.9766L18.3192 67.6598L18.2341 69.3263L13.2472 71.4683L13.242 71.5693L13.1235 73.8923L17.9883 74.1407L17.9161 75.5547ZM12.0125 73.8356L12.1293 71.5462C12.1757 70.6372 11.9907 69.964 11.5742 69.5264C11.1578 69.0888 10.6072 68.8526 9.92269 68.8176C9.22691 68.7821 8.66642 68.9616 8.24122 69.3562C7.80537 69.739 7.56367 70.3962 7.51612 71.3276L7.4001 73.6001L12.0125 73.8356Z" fill="#E8E8E8"/>
<path d="M20.9407 57.1263C20.5917 58.2298 20.0491 59.1071 19.3128 59.7582C18.5693 60.3952 17.6941 60.7961 16.6874 60.9609C15.6699 61.1224 14.5826 61.0201 13.4255 60.6542C12.2792 60.2917 11.3415 59.7536 10.6126 59.0399C9.87296 58.3228 9.38209 57.4899 9.13997 56.5412C8.90124 55.5818 8.95636 54.5503 9.30534 53.4468C9.71191 52.1611 10.353 51.2148 11.2285 50.6077C12.0967 49.9866 13.1181 49.738 14.2928 49.862L13.8201 51.3566C13.0695 51.3078 12.4006 51.4852 11.8133 51.8887C11.2188 52.2782 10.7792 52.9229 10.4946 53.8229C10.2405 54.6264 10.206 55.3875 10.3913 56.106C10.5658 56.8212 10.9488 57.455 11.5402 58.0073C12.1242 58.5456 12.8984 58.9672 13.8626 59.2721C14.8269 59.577 15.708 59.6789 16.5061 59.5777C17.2968 59.4624 17.9745 59.1641 18.5392 58.6827C19.0932 58.1979 19.4973 57.5538 19.7514 56.7502C20.036 55.8502 20.0578 55.0734 19.8166 54.4197C19.5682 53.7518 19.1282 53.2238 18.4968 52.8355L18.9694 51.3409C19.9804 51.9081 20.6624 52.6954 21.0156 53.7028C21.3722 54.6995 21.3472 55.8406 20.9407 57.1263Z" fill="#E8E8E8"/>
<path d="M24.6644 47.2962L14.753 40.8951L15.5211 39.7057L19.8963 42.5314L23.2157 37.3916L18.8405 34.566L19.6087 33.3766L29.5201 39.7776L28.752 40.967L24.1927 38.0225L20.8733 43.1623L25.4326 46.1068L24.6644 47.2962Z" fill="#E8E8E8"/>
<path d="M33.4767 35.1405L25.4001 26.5394L30.7205 21.5435L31.5166 22.3913L27.2284 26.418L30.0436 29.4161L33.9633 25.7355L34.7478 26.5711L30.8282 30.2517L33.7127 33.3235L38.0009 29.2967L38.7971 30.1446L33.4767 35.1405Z" fill="#E8E8E8"/>
<path d="M43.2719 26.703L37.5064 16.4089L40.6681 14.6381C42.4818 13.6223 44.0732 13.3363 45.4423 13.7801C46.8212 14.2185 47.9609 15.2416 48.8615 16.8494C49.7455 18.4278 50.0143 19.9194 49.6677 21.3242C49.3254 22.7137 48.2474 23.9163 46.4337 24.9322L43.2719 26.703ZM43.9307 24.9817L45.8277 23.9192C46.8277 23.3591 47.5312 22.7526 47.9382 22.0996C48.3496 21.4313 48.5125 20.7219 48.4269 19.9713C48.3359 19.2109 48.0543 18.4091 47.5821 17.566C47.0988 16.7032 46.5568 16.0344 45.956 15.5595C45.3552 15.0847 44.6624 14.848 43.8776 14.8497C43.1027 14.8458 42.2152 15.1239 41.2153 15.684L39.3182 16.7465L43.9307 24.9817Z" fill="#E8E8E8"/>
<path d="M75.5539 17.0687L75.7433 6.43473L72.2211 6.37199L72.2418 5.20916L80.7018 5.35985L80.6811 6.52268L77.1589 6.45995L76.9695 17.094L75.5539 17.0687Z" fill="#E8E8E8"/>
<path d="M85.7067 17.8815L88.5502 6.4306L95.6335 8.18956L95.3532 9.31829L89.6441 7.90057L88.6529 11.892L93.8712 13.1879L93.595 14.3003L88.3766 13.0044L87.3611 17.094L93.0702 18.5118L92.7899 19.6405L85.7067 17.8815Z" fill="#E8E8E8"/>
<path d="M101.365 23.4942C100.593 23.1031 99.9922 22.6225 99.5631 22.0523C99.134 21.4822 98.891 20.8678 98.8342 20.2092C98.7775 19.5505 98.9167 18.8904 99.2519 18.2289L100.575 18.8993C100.367 19.3103 100.269 19.7394 100.282 20.1867C100.299 20.6241 100.435 21.0394 100.69 21.4327C100.959 21.8211 101.364 22.1524 101.905 22.4267C102.617 22.7873 103.255 22.8962 103.818 22.7535C104.382 22.6108 104.793 22.2838 105.052 21.7726C105.266 21.3517 105.346 20.9702 105.292 20.6281C105.244 20.2761 105.105 19.9412 104.875 19.6234C104.656 19.3106 104.376 18.9925 104.036 18.6691C103.706 18.3507 103.364 18.0072 103.009 17.6384C102.339 16.9464 101.913 16.2958 101.73 15.6868C101.553 15.0677 101.634 14.4224 101.974 13.7508C102.249 13.1844 102.631 12.7543 103.12 12.4604C103.614 12.1565 104.167 12.0087 104.78 12.017C105.408 12.0203 106.063 12.1947 106.745 12.5401C107.417 12.8804 107.934 13.3002 108.299 13.7997C108.673 14.3042 108.883 14.8456 108.931 15.4238C108.988 16.007 108.879 16.5818 108.605 17.1482L107.282 16.4778C107.429 16.1871 107.499 15.8633 107.49 15.5065C107.487 15.1396 107.376 14.7873 107.157 14.4494C106.948 14.1166 106.612 13.8334 106.151 13.5998C105.585 13.3002 105.04 13.2069 104.517 13.3196C104.004 13.4375 103.613 13.7621 103.343 14.2933C103.115 14.7444 103.065 15.1537 103.194 15.5212C103.332 15.8938 103.592 16.2771 103.971 16.6712C104.356 17.0551 104.799 17.4997 105.299 18.0049C105.708 18.4393 106.053 18.8784 106.332 19.3221C106.611 19.7658 106.764 20.234 106.792 20.7266C106.829 21.2243 106.698 21.7689 106.398 22.3603C106.145 22.8615 105.773 23.2715 105.284 23.5905C104.8 23.8995 104.221 24.0598 103.547 24.0712C102.884 24.0878 102.156 23.8954 101.365 23.4942Z" fill="#E8E8E8"/>
<path d="M111.475 29.7931L118.282 21.6215L115.576 19.3667L116.32 18.4732L122.821 23.889L122.077 24.7826L119.37 22.5278L112.562 30.6994L111.475 29.7931Z" fill="#E8E8E8"/>
<path d="M118.88 36.785L128.268 29.6389L132.689 35.4463L131.763 36.1507L128.2 31.4699L124.928 33.9608L128.184 38.2393L127.272 38.9335L124.016 34.655L120.663 37.2072L124.226 41.888L123.3 42.5924L118.88 36.785Z" fill="#E8E8E8"/>
<path d="M126.263 47.4015L137.097 42.7287L138.532 46.0563C139.355 47.9651 139.476 49.5775 138.893 50.8935C138.315 52.2198 137.179 53.2479 135.487 53.9778C133.826 54.6943 132.315 54.8077 130.953 54.318C129.606 53.8343 128.521 52.6379 127.698 50.7291L126.263 47.4015ZM127.907 48.2343L128.768 50.2309C129.222 51.2833 129.753 52.0456 130.36 52.5179C130.982 52.996 131.671 53.2312 132.427 53.2235C133.192 53.2114 134.019 53.014 134.906 52.6313C135.814 52.2396 136.536 51.7695 137.07 51.2209C137.604 50.6722 137.911 50.0076 137.99 49.2268C138.074 48.4564 137.889 47.545 137.435 46.4926L136.574 44.496L127.907 48.2343Z" fill="#E8E8E8"/>
<path d="M132.515 80.5018L143.072 81.7872L143.498 78.2903L144.653 78.4308L143.63 86.8302L142.475 86.6896L142.901 83.1927L132.343 81.9072L132.515 80.5018Z" fill="#E8E8E8"/>
<path d="M130.682 90.5171L141.754 94.5926L140.439 98.1675C140.12 99.0322 139.718 99.6863 139.231 100.13C138.745 100.573 138.205 100.836 137.613 100.917C137.02 100.998 136.423 100.928 135.822 100.707C135.126 100.451 134.568 100.03 134.149 99.4447C133.726 98.8699 133.544 98.1443 133.603 97.268L127.951 97.9357L128.528 96.3697L133.926 95.8062L133.961 95.7113L134.764 93.5284L130.193 91.8458L130.682 90.5171ZM135.808 93.9127L135.016 96.0639C134.702 96.9181 134.679 97.6159 134.946 98.1575C135.214 98.699 135.669 99.0882 136.313 99.325C136.966 99.5656 137.555 99.5607 138.078 99.3103C138.608 99.0743 139.034 98.5186 139.356 97.6434L140.142 95.508L135.808 93.9127Z" fill="#E8E8E8"/>
<path d="M122.821 106.482C123.275 105.812 123.818 105.291 124.451 104.919C125.087 104.563 125.794 104.411 126.572 104.464C127.351 104.517 128.173 104.837 129.038 105.424L135.203 109.607L134.408 110.778L128.229 106.586C127.28 105.943 126.438 105.704 125.701 105.869C124.964 106.035 124.346 106.485 123.848 107.219C123.35 107.954 123.163 108.69 123.288 109.426C123.413 110.163 123.95 110.853 124.898 111.496L131.077 115.688L130.282 116.86L124.117 112.677C123.252 112.09 122.651 111.445 122.314 110.741C121.977 110.037 121.86 109.319 121.962 108.588C122.074 107.863 122.36 107.161 122.821 106.482Z" fill="#E8E8E8"/>
<path d="M113.813 116.864C114.454 116.283 115.117 115.893 115.803 115.695C116.489 115.498 117.149 115.49 117.785 115.672C118.42 115.853 118.987 116.219 119.486 116.768L118.388 117.765C118.078 117.424 117.712 117.18 117.29 117.032C116.875 116.893 116.438 116.872 115.98 116.969C115.521 117.082 115.067 117.342 114.618 117.75C114.027 118.287 113.698 118.844 113.631 119.421C113.563 119.998 113.722 120.499 114.107 120.924C114.424 121.273 114.752 121.484 115.091 121.556C115.437 121.636 115.799 121.626 116.178 121.525C116.549 121.431 116.946 121.283 117.369 121.081C117.784 120.886 118.227 120.689 118.698 120.489C119.583 120.11 120.343 119.943 120.977 119.99C121.619 120.045 122.193 120.351 122.699 120.908C123.13 121.366 123.396 121.876 123.496 122.438C123.604 123.008 123.545 123.578 123.319 124.148C123.091 124.733 122.695 125.283 122.129 125.797C121.572 126.303 120.995 126.637 120.399 126.799C119.794 126.969 119.213 126.973 118.656 126.811C118.091 126.656 117.592 126.35 117.161 125.891L118.259 124.894C118.478 125.136 118.756 125.316 119.092 125.436C119.436 125.564 119.805 125.585 120.199 125.501C120.584 125.424 120.968 125.212 121.351 124.864C121.833 124.442 122.114 123.966 122.195 123.437C122.268 122.916 122.104 122.435 121.704 121.994C121.364 121.619 121 121.427 120.61 121.416C120.213 121.413 119.762 121.518 119.259 121.733C118.763 121.955 118.19 122.21 117.539 122.497C116.987 122.725 116.454 122.89 115.94 122.993C115.426 123.095 114.934 123.071 114.464 122.922C113.986 122.779 113.524 122.463 113.078 121.972C112.7 121.556 112.45 121.062 112.326 120.492C112.21 119.929 112.267 119.331 112.496 118.698C112.717 118.072 113.156 117.461 113.813 116.864Z" fill="#E8E8E8"/>
<path d="M104.324 124.063L109.531 133.337L112.603 131.612L113.172 132.626L105.794 136.769L105.225 135.755L108.296 134.03L103.089 124.756L104.324 124.063Z" fill="#E8E8E8"/>
<path d="M95.1494 128.488L98.4786 139.807L91.4768 141.867L91.1486 140.751L96.7921 139.091L95.6316 135.145L90.4733 136.663L90.1499 135.563L95.3082 134.046L94.1192 130.003L88.4758 131.663L88.1476 130.547L95.1494 128.488Z" fill="#E8E8E8"/>
<path d="M82.6008 131.6L83.1039 143.388L79.4833 143.542C77.4063 143.631 75.857 143.169 74.8352 142.155C73.8023 141.142 73.2465 139.715 73.1679 137.873C73.0908 136.066 73.5237 134.613 74.4666 133.516C75.3987 132.43 76.9033 131.843 78.9802 131.754L82.6008 131.6ZM81.2366 132.839L79.0642 132.932C77.9191 132.981 77.0176 133.205 76.3598 133.604C75.6913 134.015 75.2259 134.575 74.9638 135.283C74.702 136.003 74.5918 136.845 74.633 137.811C74.6751 138.799 74.8573 139.64 75.1793 140.335C75.5014 141.03 76.013 141.554 76.7141 141.906C77.404 142.259 78.3215 142.411 79.4666 142.362L81.639 142.269L81.2366 132.839Z" fill="#E8E8E8"/>
</svg>
