<svg width="32" height="32" viewBox="0 0 32 32" fill="none" xmlns="http://www.w3.org/2000/svg">
<path d="M16.2722 11.7192C15.2263 11.7192 14.2202 11.9335 13.3066 12.3199C11.9372 12.8996 10.7757 13.8637 9.95449 15.0797C9.13326 16.2937 8.65019 17.7702 8.65229 19.3413C8.65229 20.3893 8.86652 21.3954 9.25298 22.309C9.83267 23.6784 10.7967 24.8399 12.0128 25.6611C13.2268 26.4824 14.7012 26.9633 16.2722 26.9633C16.2743 26.9633 16.2743 26.9633 16.2764 26.9633H16.2785C17.293 26.9633 18.2675 26.7617 19.156 26.3983C20.0444 26.035 20.8467 25.5078 21.5272 24.8609C22.2497 24.172 22.2791 23.0273 21.5902 22.3048C21.2353 21.931 20.7585 21.744 20.2796 21.744C19.8323 21.744 19.3828 21.91 19.0341 22.2418C18.6729 22.5863 18.2486 22.8635 17.7845 23.0525C17.3203 23.2416 16.8162 23.3466 16.2785 23.3487C15.7198 23.3487 15.199 23.2374 14.7201 23.0357C14.0039 22.7333 13.3885 22.2229 12.9558 21.5823C12.5232 20.9417 12.2732 20.1814 12.2732 19.3455C12.2732 18.7868 12.3845 18.2659 12.5862 17.787C12.8886 17.0708 13.399 16.4554 14.0396 16.0228C14.6802 15.5901 15.4405 15.3402 16.2764 15.3402C16.8141 15.3402 17.3182 15.4452 17.7824 15.6363C18.2465 15.8254 18.6708 16.1026 19.032 16.447C19.3828 16.781 19.8302 16.9448 20.2775 16.9448C20.7564 16.9448 21.2332 16.7558 21.5881 16.384C22.277 15.6615 22.2476 14.5169 21.5251 13.828C20.8446 13.1811 20.0423 12.6539 19.1539 12.2905C18.2675 11.9272 17.2909 11.7255 16.2764 11.7255H16.2722V11.7192ZM16.0496 29.805C10.2863 29.805 5.61523 25.5351 5.61523 19.7718C5.61523 14.0086 11.0067 10.562 16.0496 2.125C20.141 9.68403 25.0578 13.1496 26.2256 17.7198H14.5164V21.1349H26.3957C25.7236 26.1967 21.3487 29.805 16.0496 29.805Z" fill="#00CFCA"/>
<path d="M14.5164 17.7207H26.2256C26.3936 18.376 26.484 19.0565 26.484 19.7727V19.7937C26.484 20.2516 26.4524 20.6989 26.3936 21.1358H14.5164V17.7207Z" fill="#00CFCA"/>
<path d="M16.2722 11.7192C15.2263 11.7192 14.2202 11.9335 13.3066 12.3199C11.9372 12.8996 10.7757 13.8637 9.95449 15.0797C9.13326 16.2937 8.65019 17.7702 8.65229 19.3413C8.65229 20.3893 8.86652 21.3954 9.25298 22.309C9.83267 23.6784 10.7967 24.8399 12.0128 25.6611C13.2268 26.4824 14.7012 26.9633 16.2722 26.9633C16.2743 26.9633 16.2743 26.9633 16.2764 26.9633H16.2785C17.293 26.9633 18.2675 26.7617 19.156 26.3983C20.0444 26.035 20.8467 25.5078 21.5272 24.8609C22.2497 24.172 22.2791 23.0273 21.5902 22.3048C21.2353 21.931 20.7585 21.744 20.2796 21.744C19.8323 21.744 19.3828 21.91 19.0341 22.2418C18.6729 22.5863 18.2486 22.8635 17.7845 23.0525C17.3203 23.2416 16.8162 23.3466 16.2785 23.3487C15.7198 23.3487 15.199 23.2374 14.7201 23.0357C14.0039 22.7333 13.3885 22.2229 12.9558 21.5823C12.5232 20.9417 12.2732 20.1814 12.2732 19.3455C12.2732 18.7868 12.3845 18.2659 12.5862 17.787C12.8886 17.0708 13.399 16.4554 14.0396 16.0228C14.6802 15.5901 15.4405 15.3402 16.2764 15.3402C16.8141 15.3402 17.3182 15.4452 17.7824 15.6363C18.2465 15.8254 18.6708 16.1026 19.032 16.447C19.3828 16.781 19.8302 16.9448 20.2775 16.9448C20.7564 16.9448 21.2332 16.7558 21.5881 16.384C22.277 15.6615 22.2476 14.5169 21.5251 13.828C20.8446 13.1811 20.0423 12.6539 19.1539 12.2905C18.2675 11.9272 17.2909 11.7255 16.2764 11.7255H16.2722V11.7192ZM16.0496 29.805C10.2863 29.805 5.61523 25.5351 5.61523 19.7718C5.61523 14.0086 11.0067 10.562 16.0496 2.125C20.141 9.68403 25.0578 13.1496 26.2256 17.7198H14.5164V21.1349H26.3957C25.7236 26.1967 21.3487 29.805 16.0496 29.805Z" fill="#00CFCA"/>
</svg>
