<svg width="63" height="62" viewBox="0 0 63 62" fill="none" xmlns="http://www.w3.org/2000/svg">
<g opacity="0.1">
<path d="M37.5552 53.9729C37.3984 55.1262 37.1754 56.3158 36.4749 57.2451C35.7745 58.1744 34.4677 58.7387 33.4191 58.2389C32.4404 57.7723 32.0389 56.6108 31.7888 55.5553C30.8309 51.5135 30.6854 47.3217 31.3608 43.2232C28.4381 47.0146 24.2657 49.6464 19.5854 50.6507C18.8635 50.8071 18.0508 50.9065 17.4187 50.5072C17.106 50.2728 16.8652 49.9555 16.7235 49.5912C16.5818 49.227 16.545 48.8303 16.6172 48.4461C16.7726 47.6735 17.1036 46.9469 17.5845 46.3226C19.2157 43.9518 21.3366 41.9586 23.8039 40.4777C20.9213 40.5121 18.0956 41.2714 15.2321 41.5955C12.3685 41.9195 9.27644 41.7506 6.88308 40.1395C6.20434 39.6824 5.53649 38.9398 5.73047 38.1445C5.89684 37.4738 6.5959 37.0983 7.23145 36.8217C10.7318 35.2977 14.4222 34.2541 18.2023 33.7192C13.2008 33.7591 8.30991 32.2477 4.20272 29.393C3.31913 28.7763 2.38815 27.9172 2.46081 26.8429C2.52617 25.9465 3.32725 25.2392 4.19085 24.9906C5.07301 24.8006 5.98436 24.7898 6.87078 24.9588L21.3433 26.7737C17.1447 23.1391 14.4068 18.1047 13.6376 12.6046C13.5827 12.3645 13.6002 12.1134 13.688 11.8833C13.7633 11.7602 13.8634 11.6541 13.9819 11.5719C14.1004 11.4896 14.2348 11.433 14.3764 11.4055C16.1372 10.9121 17.7972 12.356 19.0454 13.7099C21.5129 16.4238 23.841 19.2613 26.0207 22.2115C25.4122 16.3689 24.8602 10.2178 27.1216 4.78505C27.4906 3.89765 28.2743 2.88215 29.1702 3.1912C29.47 3.31758 29.7291 3.52435 29.9189 3.78871C31.1 5.24186 31.4929 7.17206 31.8183 9.0207C32.6047 13.5011 33.2336 18.0042 33.7049 22.5297C37.012 16.7186 40.5108 10.6919 46.0653 6.96858C46.9862 6.34853 48.3829 5.86717 49.0713 6.73673C49.352 7.18421 49.4626 7.71765 49.3829 8.23983C49.0493 14.1805 44.8708 19.0673 40.9056 23.4852C46.1928 22.0748 51.6845 21.5916 57.1368 22.057C58.0902 22.1386 59.275 22.4581 59.425 23.4022C59.5251 24.0451 59.0622 24.6322 58.6005 25.09C54.0189 29.6497 47.2106 30.9382 40.8372 32.0079C46.2939 32.2776 51.4881 34.4319 55.5341 38.1035C56.7565 39.2091 57.8885 40.5455 58.1352 42.1698C58.2123 42.4896 58.1657 42.8268 58.0046 43.1136C57.8694 43.2602 57.7061 43.3781 57.5245 43.4604C57.3429 43.5427 57.1466 43.5878 56.9473 43.5928C54.0786 44.0203 51.149 43.7418 48.4122 42.7816C45.6754 41.8214 43.2139 40.2084 41.241 38.0823C43.5548 39.4229 45.5662 41.2279 47.1487 43.3836C48.7312 45.5394 49.8506 47.9993 50.4365 50.6087C50.5346 50.9088 50.5333 51.2325 50.433 51.5319C50.2771 51.8144 50.0219 52.029 49.7169 52.1343C48.2803 52.7637 46.575 52.5501 45.1681 51.8697C43.7612 51.1894 42.6171 50.0203 41.5909 48.85C40.0365 47.0846 38.7247 45.1196 37.6902 43.007C37.8627 46.684 38.0605 50.2845 37.5552 53.9729Z" fill="#005755"/>
<path d="M35.4024 34.5046C36.5541 33.5233 37.2991 32.1482 37.492 30.6474C37.6076 29.7015 37.4652 28.6533 36.8027 27.9619C36.0858 27.2097 34.9542 27.047 33.9128 27.041C32.4509 26.9853 30.9956 27.2631 29.657 27.8534C28.9899 28.1504 28.3913 28.582 27.8987 29.1211C27.4062 29.6602 27.0302 30.2952 26.7943 30.9863C26.3789 32.3843 26.785 34.051 27.9429 34.9271C30.035 36.481 33.4957 36.1132 35.4024 34.5046Z" fill="#F3E5DA"/>
</g>
</svg>
