<svg width="34" height="34" viewBox="0 0 34 34" fill="none" xmlns="http://www.w3.org/2000/svg">
<path d="M20 17C20 17.5933 19.8241 18.1734 19.4944 18.6667C19.1648 19.1601 18.6962 19.5446 18.1481 19.7716C17.5999 19.9987 16.9967 20.0581 16.4147 19.9424C15.8328 19.8266 15.2982 19.5409 14.8787 19.1213C14.4591 18.7018 14.1734 18.1672 14.0576 17.5853C13.9419 17.0033 14.0013 16.4001 14.2284 15.8519C14.4554 15.3038 14.8399 14.8352 15.3333 14.5056C15.8266 14.1759 16.4067 14 17 14C17.7954 14.0009 18.5579 14.3173 19.1203 14.8797C19.6827 15.4421 19.9991 16.2046 20 17ZM26.375 12.875V21.125C26.3734 22.5169 25.8198 23.8513 24.8356 24.8356C23.8513 25.8198 22.5169 26.3734 21.125 26.375H12.875C11.4831 26.3734 10.1487 25.8198 9.16444 24.8356C8.18022 23.8513 7.62659 22.5169 7.625 21.125V12.875C7.62659 11.4831 8.18022 10.1487 9.16444 9.16444C10.1487 8.18022 11.4831 7.62659 12.875 7.625H21.125C22.5169 7.62659 23.8513 8.18022 24.8356 9.16444C25.8198 10.1487 26.3734 11.4831 26.375 12.875ZM21.5 17C21.5 16.11 21.2361 15.24 20.7416 14.4999C20.2471 13.7599 19.5443 13.1831 18.7221 12.8425C17.8998 12.5019 16.995 12.4128 16.1221 12.5865C15.2492 12.7601 14.4474 13.1887 13.818 13.818C13.1887 14.4474 12.7601 15.2492 12.5865 16.1221C12.4128 16.995 12.5019 17.8998 12.8425 18.7221C13.1831 19.5443 13.7599 20.2471 14.4999 20.7416C15.24 21.2361 16.11 21.5 17 21.5C18.1931 21.4987 19.3369 21.0241 20.1805 20.1805C21.0241 19.3369 21.4987 18.1931 21.5 17ZM23 12.125C23 11.9025 22.934 11.685 22.8104 11.5C22.6868 11.315 22.5111 11.1708 22.3055 11.0856C22.1 11.0005 21.8738 10.9782 21.6555 11.0216C21.4373 11.065 21.2368 11.1722 21.0795 11.3295C20.9222 11.4868 20.815 11.6873 20.7716 11.9055C20.7282 12.1238 20.7505 12.35 20.8356 12.5555C20.9208 12.7611 21.065 12.9368 21.25 13.0604C21.435 13.184 21.6525 13.25 21.875 13.25C22.1734 13.25 22.4595 13.1315 22.6705 12.9205C22.8815 12.7095 23 12.4234 23 12.125Z" fill="#00BCB8"/>
</svg>
