<svg width="34" height="34" viewBox="0 0 34 34" fill="none" xmlns="http://www.w3.org/2000/svg">
<path d="M26.533 12.1118C26.5482 12.3249 26.5482 12.5382 26.5482 12.7514C26.5482 19.2539 21.599 26.7463 12.5533 26.7463C9.76648 26.7463 7.17767 25.9391 5 24.5382C5.39595 24.5838 5.77663 24.5991 6.18781 24.5991C8.48727 24.5991 10.604 23.8224 12.2944 22.4976C10.132 22.4519 8.31978 21.0356 7.69541 19.0864C8 19.132 8.30455 19.1625 8.62438 19.1625C9.06598 19.1625 9.50764 19.1016 9.91878 18.995C7.66498 18.5381 5.97458 16.5585 5.97458 14.1676V14.1067C6.62938 14.4722 7.39086 14.7006 8.19791 14.731C6.87303 13.8478 6.00505 12.3402 6.00505 10.6346C6.00505 9.72089 6.24866 8.88333 6.67508 8.15236C9.09641 11.1371 12.736 13.0863 16.8172 13.2996C16.7411 12.9341 16.6954 12.5534 16.6954 12.1727C16.6954 9.462 18.8883 7.25391 21.6141 7.25391C23.0304 7.25391 24.3095 7.84781 25.208 8.8072C26.3197 8.59402 27.3857 8.18283 28.3299 7.61939C27.9643 8.76155 27.1877 9.72094 26.1674 10.33C27.1573 10.2235 28.1167 9.94931 28.9999 9.56864C28.33 10.5432 27.4924 11.4112 26.533 12.1118Z" fill="#00BCB8"/>
</svg>
