<svg width="34" height="34" viewBox="0 0 34 34" fill="none" xmlns="http://www.w3.org/2000/svg">
<g clip-path="url(#clip0_342_489)">
<path d="M10.7006 26.0015H6.34688V11.9812H10.7006V26.0015ZM8.52141 10.0687C7.12922 10.0687 6 8.91555 6 7.52336C6 6.85464 6.26565 6.21331 6.7385 5.74046C7.21136 5.2676 7.85269 5.00195 8.52141 5.00195C9.19012 5.00195 9.83145 5.2676 10.3043 5.74046C10.7772 6.21331 11.0428 6.85464 11.0428 7.52336C11.0428 8.91555 9.91313 10.0687 8.52141 10.0687ZM26.9953 26.0015H22.6509V19.1765C22.6509 17.5499 22.6181 15.464 20.3873 15.464C18.1237 15.464 17.7769 17.2312 17.7769 19.0593V26.0015H13.4278V11.9812H17.6034V13.8937H17.6644C18.2456 12.7921 19.6655 11.6296 21.7838 11.6296C26.19 11.6296 27 14.5312 27 18.2999V26.0015H26.9953Z" fill="#00BCB8"/>
</g>
<defs>
<clipPath id="clip0_342_489">
<rect width="21" height="24" fill="white" transform="translate(6 5)"/>
</clipPath>
</defs>
</svg>
