<svg width="126" height="133" viewBox="0 0 126 133" fill="none" xmlns="http://www.w3.org/2000/svg">
<path opacity="0.1" d="M47.8517 91.3816C47.3177 89.7664 46.5071 88.2562 45.456 86.9186C44.3379 85.1934 43.5314 83.3234 42.4088 81.5873C40.7542 79.0222 39.377 76.2621 37.8285 73.6135C35.4782 69.6114 33.0974 65.618 30.686 61.6333C27.9593 57.1178 25.0221 52.743 21.9853 48.4363C19.0799 44.3182 16.2462 40.1569 13.4015 36.0001C12.6145 34.812 11.99 33.5239 11.5446 32.1701C11.3158 31.664 11.2834 31.0909 11.4536 30.5622C11.6239 30.0335 11.9847 29.587 12.4658 29.3095C12.7134 29.1211 12.9493 28.9178 13.1723 28.701C13.5517 28.2908 14.0545 28.0153 14.6045 27.9165C15.1545 27.8178 15.7217 27.901 16.2201 28.1535C17.6019 28.7119 19.0118 29.2455 20.3732 29.8769C22.7295 30.9736 25.0373 32.1682 27.3999 33.2494C31.6455 35.1908 35.4875 37.818 39.5062 40.1644C42.628 42.004 45.7497 43.8434 48.895 45.6473C53.6793 48.3934 58.4684 51.1203 63.2621 53.8282C65.4563 55.058 67.7036 56.201 69.9351 57.4278C70.2533 57.6016 70.5833 57.9246 71.1085 57.5859C70.8047 56.7338 70.451 55.9004 70.0492 55.0899C68.1791 51.8959 66.2701 48.7313 64.3673 45.5512C63.5109 44.1395 62.6655 42.7231 61.82 41.3068C60.1182 38.4788 58.4007 35.6445 56.7098 32.8119C55.4176 30.6461 54.1254 28.4804 52.8987 26.2869C52.4332 25.4629 52.0623 24.589 51.7931 23.6817C51.6334 23.3123 51.6156 22.8969 51.7432 22.5152C51.8708 22.1335 52.1348 21.8123 52.4846 21.6131C52.7033 21.5193 52.8924 21.3679 53.0318 21.175C53.8644 19.6511 55.2101 19.8518 56.4776 20.2014C59.9046 21.1363 63.221 22.4372 66.3697 24.0815C70.8039 26.3159 75.1958 28.6325 79.6958 30.749C82.763 32.1872 85.7441 33.8163 88.7799 35.3321C89.3356 35.6109 89.9318 35.8338 90.5172 36.0613C90.8231 36.1759 91.084 35.8207 91.0136 35.5033C90.9432 35.1858 90.8831 35.0442 90.8233 34.8123C89.8388 31.3711 88.9412 27.9831 87.9052 24.6023C87.3057 22.6443 86.5817 20.7261 85.9604 18.7773C84.9254 15.5505 83.6851 12.3852 82.5738 9.19081C82.089 7.77577 81.6915 6.32368 81.2658 4.89641C81.1482 4.55953 81.1165 4.19864 81.1737 3.84641C81.2308 3.49419 81.3751 3.16183 81.5932 2.87947C81.8128 2.65608 82.0109 2.41265 82.1851 2.15235C82.4434 1.66971 82.5728 1.126 83.2001 0.936972C83.8899 0.7338 84.6313 0.800865 85.2735 1.12462C86.5083 1.81421 87.6567 2.64809 88.6946 3.60882C91.0189 5.38798 92.8704 7.68947 95.101 9.61133C96.2665 10.6603 97.329 11.8302 98.4883 12.8947C100.651 14.9609 102.701 17.1526 104.711 19.3738C106.097 20.8822 107.533 22.3566 108.891 23.8898C112.264 27.7452 115.626 31.6053 118.965 35.501C120.195 36.9467 121.687 38.1275 122.963 39.5282C123.457 39.9363 124.025 40.2455 124.636 40.439C125.017 40.569 125.33 40.8436 125.509 41.2034C125.689 41.5632 125.719 41.9791 125.593 42.361C125.38 43.2048 124.957 43.9813 124.365 44.6189C122.53 46.9027 120.697 49.1601 118.837 51.4158C110.815 61.1662 102.663 70.8041 94.383 80.3297C88.6349 86.9111 82.9007 93.5253 77.0191 100.035C72.7998 104.733 68.7371 109.557 64.679 114.392C60.874 118.914 57.2347 123.584 53.4964 128.142C52.3227 129.84 50.676 131.156 48.761 131.927C48.401 132.067 48.0064 132.091 47.6319 131.996C47.2575 131.902 46.9219 131.693 46.6717 131.399C42.8811 127.862 39.7358 123.846 36.1712 120.174C33.934 117.934 31.6782 115.65 29.478 113.496C24.5959 108.802 19.784 104.031 15.0423 99.1827C11.6868 95.7316 8.27977 92.341 4.90707 88.91C4.12773 88.1345 3.35469 87.3435 2.61433 86.5386C1.81046 85.6381 1.25678 84.5425 1.00854 83.3611C0.95542 83.1339 0.961049 82.8968 1.02494 82.6724C1.42218 81.5776 2.70742 81.3023 3.21169 80.2779C3.38078 79.9489 3.89839 79.9864 4.35258 79.9352C5.69627 79.9138 7.03556 80.0958 8.32487 80.4749C15.6253 82.5219 22.884 84.4708 30.1752 86.4961C35.8758 88.0773 41.5403 89.7252 47.2284 91.3374C47.4344 91.3709 47.643 91.3857 47.8517 91.3816Z" fill="#005755"/>
</svg>
