<svg width="189" height="142" viewBox="0 0 189 142" fill="none" xmlns="http://www.w3.org/2000/svg">
<path opacity="0.1" d="M119.764 64.0663C122.928 62.4098 126.103 60.7723 129.255 59.1047C134.855 56.1498 140.575 53.3941 145.496 49.3337C149.378 46.1304 153.063 42.7367 155.238 38.0463C158.446 31.1199 156.655 25.3527 150.172 21.3626C144.714 18.0049 138.788 17.3714 132.621 18.1856C123.861 19.3473 115.821 22.6927 108.121 26.815C102.36 29.898 96.838 33.429 91.1985 36.734C90.1226 37.3675 88.9917 37.9034 87.8883 38.488C87.7717 38.3304 87.6627 38.1727 87.55 38.0188C89.316 36.6253 91.0938 35.2504 92.8404 33.8306C97.0947 30.3817 101.473 27.0674 105.518 23.3789C107.284 21.7612 108.621 19.4974 109.686 17.2988C112.743 11.0474 109.935 4.41579 103.379 1.99212C98.7648 0.288007 94.0152 0.470591 89.3177 1.49558C79.6353 3.61877 70.9616 7.90565 63.022 13.8365C53.3324 21.0687 44.2954 29.1365 36.0151 37.9474C35.0555 38.9293 34.0467 39.8618 32.9923 40.7411C31.3073 42.2131 30.5907 42.305 28.8206 40.9519C25.8496 38.6693 22.9566 36.2828 20.0303 33.9462C16.5228 31.1598 13.0412 28.3311 9.46675 25.6293C8.47251 24.9345 7.35927 24.4279 6.18223 24.1346C3.24695 23.3064 0.856099 25.2765 1.55501 28.2242C2.04496 30.3164 3.0386 32.2571 4.44943 33.8777C7.8277 37.5705 11.5464 40.9499 15.1531 44.4451C17.6592 46.8686 20.1991 49.2725 22.7011 51.677C23.0872 52.0504 23.4127 52.4323 23.9196 52.9823C22.6163 54.3301 21.3764 55.6122 20.1711 56.9204C11.7587 66.1047 5.61793 77.1342 2.24239 89.1225C0.194824 96.4017 0.346405 103.648 3.77491 110.572C5.76656 114.512 8.8426 117.8 12.6407 120.05C17.7883 123.227 23.3193 122.522 28.1283 118.399C33.2544 114.051 36.6456 108.004 37.6829 101.363C38.3491 97.5833 38.4552 93.695 39.0183 89.8827C39.4896 86.714 40.2274 83.5787 40.8891 80.4372C41.1744 79.0914 42.1004 78.8138 43.094 79.6176C44.0875 80.4215 45.2994 81.3243 45.6865 82.4385C46.5993 84.9023 47.195 87.4722 47.4593 90.0865C47.9008 95.8118 47.7164 101.605 48.3171 107.312C48.7762 111.662 49.6856 115.953 51.0309 120.115C52.7294 125.367 56.3361 129.31 61.3576 131.76C69.6541 135.814 77.8757 129.947 79.7611 123.191C80.7507 119.876 80.6796 116.335 79.5576 113.062C78.0369 108.677 76.3047 104.364 74.8293 99.9631C74.0776 97.7281 73.5528 95.4232 73.2629 93.0829C73.1442 92.1162 73.6665 90.6334 74.4135 90.1003C75.5848 89.26 77.1314 89.7393 78.1779 90.7512C79.0834 91.553 79.8103 92.5361 80.3117 93.6368C82.3032 98.6864 84.2117 103.77 86.0373 108.889C88.3922 115.455 90.845 121.952 94.9753 127.68C98.8527 133.051 103.514 137.395 109.801 139.857C112.457 140.91 115.315 141.355 118.166 141.16C125.937 140.642 132.114 132.416 130.023 124.594C128.433 118.573 125.236 113.487 121.569 108.61C118.689 104.772 115.664 101.047 112.834 97.1736C111.885 95.7794 111.125 94.2655 110.574 92.6717C109.926 90.9541 110.786 89.8873 112.49 90.4741C114.823 91.2637 117.054 92.3293 119.134 93.6485C124.411 97.032 129.366 100.957 134.804 104.041C144.861 109.745 155.733 111.762 167.199 109.54C172.811 108.451 177.917 106.184 182.204 102.184C189.023 95.8121 190.799 86.805 185.835 78.9257C177.881 66.2872 166.515 59.4958 151.151 61.0801C143.119 61.8991 135.144 63.2452 127.145 64.2687C124.757 64.5748 122.333 64.5625 119.927 64.6941L119.764 64.0663Z" fill="#005755"/>
</svg>
