<svg width="256" height="256" viewBox="0 0 256 256" fill="none" xmlns="http://www.w3.org/2000/svg">
<path d="M130.177 93.7539C121.81 93.7539 113.761 95.4677 106.452 98.5594C95.497 103.197 86.2052 110.909 79.6354 120.638C73.0656 130.35 69.201 142.162 69.2178 154.73C69.2178 163.115 70.9317 171.163 74.0233 178.472C78.6608 189.427 86.3732 198.719 96.1019 205.289C105.814 211.859 117.609 215.707 130.177 215.707C130.194 215.707 130.194 215.707 130.211 215.707H130.228C138.343 215.707 146.14 214.094 153.247 211.187C160.355 208.28 166.773 204.062 172.217 198.887C177.997 193.376 178.233 184.219 172.721 178.439C169.882 175.448 166.068 173.952 162.237 173.952C158.658 173.952 155.062 175.28 152.273 177.935C149.383 180.69 145.989 182.908 142.275 184.42C138.562 185.933 134.529 186.773 130.228 186.789C125.758 186.789 121.591 185.899 117.76 184.286C112.031 181.866 107.108 177.783 103.646 172.659C100.185 167.534 98.1854 161.451 98.1854 154.764C98.1854 150.294 99.0759 146.127 100.689 142.296C103.109 136.567 107.192 131.644 112.316 128.182C117.441 124.721 123.524 122.721 130.211 122.721C134.512 122.721 138.545 123.562 142.258 125.091C145.972 126.603 149.366 128.821 152.256 131.576C155.062 134.248 158.641 135.559 162.22 135.559C166.051 135.559 169.865 134.046 172.705 131.072C178.216 125.292 177.981 116.135 172.2 110.624C166.756 105.448 160.338 101.231 153.23 98.3242C146.14 95.4174 138.327 93.8043 130.211 93.8043H130.177V93.7539ZM128.396 238.44C82.2902 238.44 44.9214 204.281 44.9214 158.175C44.9214 112.069 88.0535 84.4957 128.396 17C161.128 77.4723 200.462 105.196 209.805 141.759H116.13V169.08H211.166C205.789 209.574 170.789 238.44 128.396 238.44Z" fill="#00CFCA"/>
<path d="M116.131 141.764H209.805C211.149 147.006 211.871 152.45 211.871 158.18V158.348C211.871 162.011 211.619 165.59 211.149 169.085H116.131V141.764Z" fill="#00CFCA"/>
<path d="M130.177 93.7539C121.81 93.7539 113.761 95.4677 106.452 98.5594C95.497 103.197 86.2052 110.909 79.6354 120.638C73.0656 130.35 69.201 142.162 69.2178 154.73C69.2178 163.115 70.9317 171.163 74.0233 178.472C78.6608 189.427 86.3732 198.719 96.1019 205.289C105.814 211.859 117.609 215.707 130.177 215.707C130.194 215.707 130.194 215.707 130.211 215.707H130.228C138.343 215.707 146.14 214.094 153.247 211.187C160.355 208.28 166.773 204.062 172.217 198.887C177.997 193.376 178.233 184.219 172.721 178.439C169.882 175.448 166.068 173.952 162.237 173.952C158.658 173.952 155.062 175.28 152.273 177.935C149.383 180.69 145.989 182.908 142.275 184.42C138.562 185.933 134.529 186.773 130.228 186.789C125.758 186.789 121.591 185.899 117.76 184.286C112.031 181.866 107.108 177.783 103.646 172.659C100.185 167.534 98.1854 161.451 98.1854 154.764C98.1854 150.294 99.0759 146.127 100.689 142.296C103.109 136.567 107.192 131.644 112.316 128.182C117.441 124.721 123.524 122.721 130.211 122.721C134.512 122.721 138.545 123.562 142.258 125.091C145.972 126.603 149.366 128.821 152.256 131.576C155.062 134.248 158.641 135.559 162.22 135.559C166.051 135.559 169.865 134.046 172.705 131.072C178.216 125.292 177.981 116.135 172.2 110.624C166.756 105.448 160.338 101.231 153.23 98.3242C146.14 95.4174 138.327 93.8043 130.211 93.8043H130.177V93.7539ZM128.396 238.44C82.2902 238.44 44.9214 204.281 44.9214 158.175C44.9214 112.069 88.0535 84.4957 128.396 17C161.128 77.4723 200.462 105.196 209.805 141.759H116.13V169.08H211.166C205.789 209.574 170.789 238.44 128.396 238.44Z" fill="#00CFCA"/>
</svg>
